/* XPM */
static char *kin[] = {
/* columns rows colors chars-per-pixel */
"40 30 2 1 ",
"  c black",
". c gray100",
/* pixels */
"                                        ",
"                                        ",
"                                        ",
"                                        ",
"                                        ",
"                                        ",
"                                        ",
"    ..                                  ",
"    ..                                  ",
"    ..                                  ",
"    ..         ..                       ",
"    ..         ..                       ",
"    ..                                  ",
"    ..   ..    ..    .. ....            ",
"    ..  ...    ..    .........          ",
"    .. ...     ..    ....   ...         ",
"    .....      ..    ...     ..         ",
"    ....       ..    ..      ..         ",
"    ....       ..    ..      ..         ",
"    .....      ..    ..      ..         ",
"    .. ...     ..    ..      ..         ",
"    ..  ...    ..    ..      ..         ",
"    ..   ...   ..    ..      ..         ",
"    ..    ..   ..    ..      ..         ",
"                                        ",
"                                        ",
"                                        ",
"                                        ",
"                                        ",
"                                        "
};
